<svg width="70" height="51" viewBox="0 0 70 51" fill="none" xmlns="http://www.w3.org/2000/svg">
<g clip-path="url(#clip0_2073_3495)">
<path d="M61.6199 12.8965C63.4714 12.6557 65.0838 12.4828 66.363 12.6855C66.9927 12.7854 67.5147 12.9734 67.9333 13.2705C68.3469 13.5641 68.6854 13.9826 68.9255 14.5879C69.3648 15.6959 69.4611 17.1735 69.2908 18.877C69.1213 20.5717 68.6933 22.4436 68.1306 24.3115C67.1457 27.5812 65.7591 30.797 64.6677 32.959L64.2195 33.8184C61.8784 38.16 58.3822 42.7427 54.1453 45.874C50.0459 48.9036 45.2925 50.5501 40.2156 49.373L39.7234 49.25C38.3424 48.8805 37.0814 48.3153 35.9324 47.5713C39.1918 45.5812 41.8022 42.7168 43.8582 39.4062C46.3509 39.6282 48.9705 40.9504 51.4587 42.4082L52.1658 42.8223L52.2107 42.0039C52.3147 40.1144 51.4465 38.5664 50.2166 37.335C49.1092 36.2263 47.6822 35.3464 46.3191 34.6592C48.5763 29.4266 49.7786 23.6194 50.158 18.4258V18.4248C50.2626 16.9181 50.3222 14.9161 50.2761 12.6816C52.9455 13.3371 55.7284 13.53 58.6189 13.2646L59.2458 13.2002C60.0594 13.1085 60.8558 12.9995 61.6208 12.8975L61.6199 12.8965ZM38.6628 0.568359C39.3269 0.458984 39.9138 0.474363 40.4343 0.633789C40.8847 0.77178 41.3089 1.02507 41.7039 1.44043L41.8718 1.62891C42.6805 2.59517 43.2652 4.04396 43.6589 5.80273C44.0508 7.55295 44.2442 9.56463 44.3005 11.6162C44.4132 15.7205 43.9783 19.9276 43.5427 22.4033C42.6418 27.5129 40.6688 33.248 37.4734 37.7793C34.2817 42.3053 29.902 45.5916 24.1716 45.9297C18.1296 46.2847 12.9143 42.9059 8.35034 36.3057C5.61928 32.079 3.60441 27.7494 2.30737 23.3115L2.05835 22.4219C1.60092 20.703 0.861879 16.7103 0.597412 12.8096C0.465163 10.8589 0.453224 8.9518 0.647217 7.37402C0.845085 5.76503 1.24402 4.62146 1.82788 4.06445C2.56011 3.36977 3.72295 3.14031 5.20581 3.23438H5.20679C7.30434 3.36369 9.45816 3.88114 11.5847 4.45117L13.699 5.02637C19.8477 6.6838 25.8704 6.14299 31.7234 3.43945H31.7244C32.502 3.07924 33.2643 2.70614 33.9939 2.35547H33.9949C35.7597 1.50168 37.3146 0.790502 38.6628 0.568359ZM31.9236 28.8086C29.3476 30.8666 26.7002 31.9333 23.9753 32.125C21.2464 32.3169 18.3992 31.6348 15.4255 30.1299L14.4568 29.6396L14.7136 30.6943C15.2725 32.9889 16.3166 34.7189 18.2634 36.1113H18.2644C20.4386 37.6635 22.7391 38.4383 24.9343 38.2197C27.1428 37.9998 29.166 36.7823 30.7791 34.5098L30.7781 34.5088C31.8774 32.9611 32.5142 31.2027 32.7332 29.2559L32.8679 28.0547L31.9236 28.8086ZM61.4802 23.9512C58.6086 21.5883 54.4194 21.0565 51.3308 23.5322L51.0339 23.7705L51.1843 24.1201C51.9311 25.8521 53.2322 26.7613 54.8474 27.415V27.416C56.884 28.2577 59.4366 28.6257 61.2244 28.4219C61.9383 28.3833 62.5613 28.234 62.9832 27.8838L62.9841 27.8828C63.3952 27.5398 63.5401 27.0938 63.4861 26.6406C63.4366 26.2255 63.2256 25.8318 62.9939 25.5029C62.5262 24.8392 61.8294 24.2404 61.4812 23.9521L61.4802 23.9512ZM16.6716 16.0557C14.0633 13.9953 10.9297 14.1034 8.59839 14.9131C7.43187 15.3183 6.43106 15.9095 5.76538 16.5322C5.43427 16.842 5.16422 17.1802 5.00952 17.5283C4.85382 17.8789 4.79617 18.2916 4.98999 18.6768V18.6787C5.1586 19.0113 5.46454 19.2645 5.82788 19.4648C6.19571 19.6676 6.6665 19.8394 7.2312 19.9873C7.89337 20.1812 9.22212 20.4206 10.7195 20.5889C12.2335 20.759 13.9638 20.8618 15.4099 20.7686C16.1312 20.722 16.8061 20.6256 17.3552 20.4521C17.885 20.2848 18.4016 20.0136 18.6609 19.543C18.9455 19.0261 18.8317 18.4479 18.4919 17.8955C18.1562 17.3498 17.5536 16.742 16.6716 16.0557ZM36.0886 12.7979C33.6485 12.4245 30.5457 12.8879 28.3542 15.3906C27.6113 16.2263 27.1292 16.9333 26.8982 17.5312C26.6644 18.1366 26.6581 18.7259 27.032 19.1826C27.3725 19.5986 27.9297 19.7714 28.4812 19.8398C29.0527 19.9107 29.7333 19.883 30.4509 19.7979C31.8903 19.627 33.574 19.2108 35.032 18.7686C36.4731 18.3314 37.7351 17.8554 38.3503 17.5449L38.3513 17.5459C38.8806 17.2975 39.3131 17.0424 39.6384 16.7754C39.96 16.5115 40.2134 16.2044 40.3181 15.8447C40.4387 15.4312 40.308 15.0363 40.0916 14.7197C39.8764 14.4052 39.5495 14.1217 39.1677 13.877C38.4003 13.3851 37.3094 12.9847 36.0886 12.7979Z" stroke="#404040"/>
</g>
<defs>
<clipPath id="clip0_2073_3495">
<rect width="69.874" height="50.2618" fill="white"/>
</clipPath>
</defs>
</svg>
